<svg xmlns="http://www.w3.org/2000/svg" xmlns:xlink="http://www.w3.org/1999/xlink" width="2000" zoomAndPan="magnify" viewBox="0 0 1500 1499.999933" height="2000" preserveAspectRatio="xMidYMid meet" version="1.0"><defs><g/><clipPath id="0e2bb95da5"><path d="M 102.8125 726 L 131 726 L 131 779 L 102.8125 779 Z M 102.8125 726 " clip-rule="nonzero"/></clipPath><clipPath id="577f988b51"><path d="M 363 726 L 391.5625 726 L 391.5625 779 L 363 779 Z M 363 726 " clip-rule="nonzero"/></clipPath><clipPath id="33d8de6490"><rect x="0" width="930" y="0" height="217"/></clipPath></defs><g clip-path="url(#0e2bb95da5)"><path fill="#00bf63" d="M 130.621094 726.359375 L 117.902344 777.179688 C 117.808594 777.558594 117.761719 777.984375 117.667969 778.363281 L 110.007812 778.363281 C 106.082031 778.363281 102.917969 775.195312 102.917969 771.269531 L 102.917969 733.449219 C 102.917969 729.527344 106.082031 726.359375 110.007812 726.359375 Z M 130.621094 726.359375 " fill-opacity="1" fill-rule="nonzero"/></g><path fill="#00bf63" d="M 247.109375 702.71875 C 241.765625 702.71875 230.183594 702.816406 216.378906 703.382812 L 216.378906 686.175781 C 216.378906 682.25 219.546875 679.082031 223.46875 679.082031 L 270.746094 679.082031 C 274.667969 679.082031 277.835938 682.25 277.835938 686.175781 L 277.835938 703.382812 C 264.03125 702.816406 252.449219 702.71875 247.109375 702.71875 Z M 247.109375 702.71875 " fill-opacity="1" fill-rule="nonzero"/><path fill="#00bf63" d="M 371.726562 778.316406 L 358.253906 724.5625 C 355.179688 712.082031 288.425781 707.449219 247.109375 707.449219 C 205.789062 707.449219 139.035156 712.082031 135.914062 724.5625 L 122.488281 778.316406 C 118.941406 792.542969 121.402344 807.910156 129.25 820.484375 C 134.542969 828.996094 139.648438 836.085938 144.328125 841.523438 C 151.847656 850.222656 163.996094 852.914062 174.539062 848.234375 L 238.457031 819.824219 C 243.941406 817.363281 250.273438 817.363281 255.757812 819.824219 L 319.675781 848.234375 C 330.21875 852.914062 342.367188 850.222656 349.886719 841.523438 C 354.566406 836.085938 359.671875 828.996094 364.964844 820.484375 C 372.816406 807.910156 375.273438 792.542969 371.726562 778.316406 Z M 228.199219 731.085938 C 186.738281 731.085938 172.363281 735.625 172.222656 735.671875 L 170.710938 731.226562 C 171.324219 730.992188 185.742188 726.359375 228.199219 726.359375 Z M 352.769531 826.347656 L 349.460938 829.65625 L 335.277344 815.472656 C 334.566406 814.8125 334.378906 813.820312 334.757812 812.921875 C 335.136719 812.023438 335.988281 811.453125 336.933594 811.453125 C 341.660156 811.453125 345.015625 810.179688 347 807.625 C 349.507812 804.410156 349.414062 799.777344 349.128906 797.273438 L 328.941406 797.273438 L 315.421875 824.3125 C 314.617188 825.921875 311.96875 825.921875 311.167969 824.3125 L 296.984375 795.949219 L 301.238281 793.867188 L 313.292969 817.980469 L 325.347656 793.867188 C 325.773438 793.066406 326.578125 792.542969 327.476562 792.542969 L 351.113281 792.542969 C 352.203125 792.542969 353.148438 793.300781 353.429688 794.339844 C 353.527344 794.71875 355.796875 804.078125 350.738281 810.558594 C 348.703125 813.15625 345.820312 814.859375 342.132812 815.664062 Z M 352.769531 826.347656 " fill-opacity="1" fill-rule="nonzero"/><g clip-path="url(#577f988b51)"><path fill="#00bf63" d="M 391.300781 733.449219 L 391.300781 771.269531 C 391.300781 775.195312 388.132812 778.363281 384.207031 778.363281 L 376.550781 778.363281 C 376.453125 777.984375 376.40625 777.558594 376.3125 777.179688 L 363.59375 726.359375 L 384.207031 726.359375 C 388.132812 726.359375 391.300781 729.527344 391.300781 733.449219 Z M 391.300781 733.449219 " fill-opacity="1" fill-rule="nonzero"/></g><path fill="#00bf63" d="M 293.253906 631.519531 L 295.515625 627.367188 C 242.878906 598.652344 198.957031 627.183594 198.519531 627.476562 L 201.140625 631.414062 C 201.550781 631.128906 243.164062 604.199219 293.253906 631.519531 Z M 293.253906 631.519531 " fill-opacity="1" fill-rule="nonzero"/><path fill="#00bf63" d="M 281.332031 644.386719 C 244.101562 624.074219 213.007812 644.285156 212.703125 644.496094 L 215.328125 648.429688 C 215.613281 648.238281 244.316406 629.585938 279.070312 648.539062 Z M 281.332031 644.386719 " fill-opacity="1" fill-rule="nonzero"/><path fill="#00bf63" d="M 231.613281 660.886719 L 234.230469 664.824219 C 234.707031 664.511719 246.0625 657.242188 260.160156 664.925781 L 262.421875 660.777344 C 245.753906 651.683594 232.175781 660.503906 231.613281 660.886719 Z M 231.613281 660.886719 " fill-opacity="1" fill-rule="nonzero"/><g transform="matrix(1, 0, 0, 1, 468, 658)"><g clip-path="url(#33d8de6490)"><g fill="#00bf63" fill-opacity="1"><g transform="translate(0.687239, 171.416335)"><g><path d="M 100.359375 -112.515625 L 118.140625 -112.515625 L 73.8125 0 L 49.953125 0 L 5.625 -112.515625 L 24.53125 -112.515625 L 62.328125 -15.75 Z M 100.359375 -112.515625 "/></g></g></g><g fill="#00bf63" fill-opacity="1"><g transform="translate(121.528234, 171.416335)"><g><path d="M 13.953125 -130.96875 L 13.953125 -149.640625 L 37.125 -149.640625 L 37.125 -130.96875 Z M 16.421875 0 L 16.421875 -112.515625 L 34.4375 -112.515625 L 34.4375 0 Z M 16.421875 0 "/></g></g></g><g fill="#00bf63" fill-opacity="1"><g transform="translate(170.359692, 171.416335)"><g><path d="M 75.609375 -114.09375 L 79.65625 -114.09375 L 79.65625 -96.3125 L 74.9375 -96.3125 C 63.832031 -96.757812 55.351562 -94.582031 49.5 -89.78125 C 43.65625 -84.988281 39.679688 -78.390625 37.578125 -69.984375 C 35.484375 -61.585938 34.4375 -52.0625 34.4375 -41.40625 L 34.4375 0 L 16.421875 0 L 16.421875 -112.515625 L 34.4375 -112.515625 L 34.4375 -82.8125 C 37.882812 -92.113281 42.945312 -99.648438 49.625 -105.421875 C 56.300781 -111.203125 64.960938 -114.09375 75.609375 -114.09375 Z M 75.609375 -114.09375 "/></g></g></g><g fill="#00bf63" fill-opacity="1"><g transform="translate(251.820486, 171.416335)"><g><path d="M 53.109375 0 C 42.304688 0 35.066406 -2.132812 31.390625 -6.40625 C 27.710938 -10.6875 25.875 -17.328125 25.875 -26.328125 L 25.875 -98.34375 L 4.5 -98.34375 L 4.5 -108.46875 L 27.453125 -114.09375 L 34.203125 -137.5 L 43.875 -137.5 L 43.875 -112.515625 L 81.015625 -112.515625 L 81.015625 -98.34375 L 43.875 -98.34375 L 43.875 -14.625 L 79.65625 -14.625 L 79.65625 0 Z M 53.109375 0 "/></g></g></g><g fill="#00bf63" fill-opacity="1"><g transform="translate(339.807116, 171.416335)"><g><path d="M 97.21875 -112.515625 L 115.21875 -112.515625 L 115.21875 0 L 97.21875 0 L 97.21875 -28.578125 C 93.914062 -18.523438 88.847656 -10.648438 82.015625 -4.953125 C 75.191406 0.742188 66.304688 3.59375 55.359375 3.59375 C 41.253906 3.59375 30.863281 -0.113281 24.1875 -7.53125 C 17.507812 -14.957031 14.171875 -26.023438 14.171875 -40.734375 L 14.171875 -112.515625 L 32.171875 -112.515625 L 32.171875 -42.75 C 32.171875 -34.5 33.332031 -28.085938 35.65625 -23.515625 C 37.988281 -18.941406 41.289062 -15.753906 45.5625 -13.953125 C 49.84375 -12.148438 54.832031 -11.25 60.53125 -11.25 C 72.226562 -11.25 81.265625 -16.3125 87.640625 -26.4375 C 94.023438 -36.5625 97.21875 -50.925781 97.21875 -69.53125 Z M 97.21875 -112.515625 "/></g></g></g><g fill="#000000" fill-opacity="1"><g transform="translate(467.636684, 171.416335)"><g><path d="M 50.1875 2.921875 C 39.382812 2.921875 30.492188 0.144531 23.515625 -5.40625 C 16.535156 -10.957031 13.046875 -19.054688 13.046875 -29.703125 C 13.046875 -38.859375 15.707031 -46.285156 21.03125 -51.984375 C 26.363281 -57.679688 35.101562 -61.503906 47.25 -63.453125 L 75.828125 -68.1875 C 81.835938 -69.238281 86.15625 -70.738281 88.78125 -72.6875 C 91.40625 -74.632812 92.71875 -77.707031 92.71875 -81.90625 C 92.71875 -87.613281 90.84375 -92.414062 87.09375 -96.3125 C 83.34375 -100.21875 75.988281 -102.171875 65.03125 -102.171875 C 54.082031 -102.171875 46.242188 -99.84375 41.515625 -95.1875 C 36.796875 -90.539062 34.132812 -84.539062 33.53125 -77.1875 L 15.75 -77.1875 C 16.050781 -89.1875 20.363281 -98.710938 28.6875 -105.765625 C 37.019531 -112.816406 48.910156 -116.34375 64.359375 -116.34375 C 79.804688 -116.34375 91.128906 -113.15625 98.328125 -106.78125 C 105.535156 -100.40625 109.140625 -92.113281 109.140625 -81.90625 L 109.140625 -27.90625 C 109.140625 -23.851562 109.210938 -19.578125 109.359375 -15.078125 C 109.515625 -10.578125 109.890625 -5.550781 110.484375 0 L 94.0625 0 C 93.613281 -4.800781 93.238281 -9.335938 92.9375 -13.609375 C 92.632812 -17.890625 92.484375 -22.128906 92.484375 -26.328125 C 91.140625 -21.828125 88.78125 -17.328125 85.40625 -12.828125 C 82.03125 -8.328125 77.488281 -4.578125 71.78125 -1.578125 C 66.082031 1.417969 58.882812 2.921875 50.1875 2.921875 Z M 53.78125 -11.25 C 62.632812 -11.25 69.945312 -13.273438 75.71875 -17.328125 C 81.5 -21.378906 85.773438 -26.628906 88.546875 -33.078125 C 91.328125 -39.523438 92.71875 -46.273438 92.71875 -53.328125 L 92.71875 -63.015625 C 89.863281 -61.054688 86.859375 -59.515625 83.703125 -58.390625 C 80.554688 -57.265625 76.804688 -56.253906 72.453125 -55.359375 L 53.78125 -51.53125 C 46.132812 -50.03125 40.472656 -47.664062 36.796875 -44.4375 C 33.117188 -41.21875 31.28125 -36.53125 31.28125 -30.375 C 31.28125 -23.925781 33.378906 -19.125 37.578125 -15.96875 C 41.773438 -12.820312 47.175781 -11.25 53.78125 -11.25 Z M 53.78125 -11.25 "/></g></g></g><g fill="#000000" fill-opacity="1"><g transform="translate(589.827868, 171.416335)"><g><path d="M 16.203125 0 L 16.203125 -157.515625 L 34.203125 -157.515625 L 34.203125 0 Z M 16.203125 0 "/></g></g></g><g fill="#000000" fill-opacity="1"><g transform="translate(640.234543, 171.416335)"><g><path d="M 13.953125 -130.96875 L 13.953125 -149.640625 L 37.125 -149.640625 L 37.125 -130.96875 Z M 16.421875 0 L 16.421875 -112.515625 L 34.4375 -112.515625 L 34.4375 0 Z M 16.421875 0 "/></g></g></g><g fill="#000000" fill-opacity="1"><g transform="translate(686.140627, 171.416335)"><g><path d="M 34.65625 -13.734375 L 111.84375 -13.734375 L 111.84375 0 L 12.828125 0 L 12.828125 -13.734375 L 89.34375 -98.78125 L 12.828125 -98.78125 L 12.828125 -112.515625 L 110.71875 -112.515625 L 110.71875 -98.78125 Z M 34.65625 -13.734375 "/></g></g></g><g fill="#000000" fill-opacity="1"><g transform="translate(799.555639, 171.416335)"><g><path d="M 67.28125 -10.125 C 78.382812 -10.125 86.671875 -12.445312 92.140625 -17.09375 C 97.617188 -21.75 101.1875 -27.601562 102.84375 -34.65625 L 119.265625 -34.65625 C 118.515625 -28.957031 116.375 -23.144531 112.84375 -17.21875 C 109.320312 -11.289062 103.847656 -6.335938 96.421875 -2.359375 C 88.992188 1.605469 79.054688 3.59375 66.609375 3.59375 C 53.703125 3.59375 43.125 0.929688 34.875 -4.390625 C 26.625 -9.710938 20.546875 -16.910156 16.640625 -25.984375 C 12.742188 -35.066406 10.796875 -45.234375 10.796875 -56.484375 C 10.796875 -67.734375 12.859375 -77.859375 16.984375 -86.859375 C 21.109375 -95.859375 27.296875 -102.984375 35.546875 -108.234375 C 43.804688 -113.484375 54.160156 -116.109375 66.609375 -116.109375 C 77.859375 -116.109375 87.421875 -113.707031 95.296875 -108.90625 C 103.171875 -104.113281 109.171875 -97.515625 113.296875 -89.109375 C 117.421875 -80.710938 119.484375 -71.035156 119.484375 -60.078125 C 119.484375 -58.578125 119.484375 -57.226562 119.484375 -56.03125 C 119.484375 -54.832031 119.335938 -53.554688 119.046875 -52.203125 L 28.578125 -52.203125 C 29.328125 -36.753906 33.148438 -25.878906 40.046875 -19.578125 C 46.953125 -13.273438 56.03125 -10.125 67.28125 -10.125 Z M 66.828125 -102.390625 C 56.179688 -102.390625 47.519531 -99.613281 40.84375 -94.0625 C 34.164062 -88.507812 30.226562 -79.054688 29.03125 -65.703125 L 101.9375 -65.703125 C 101.488281 -78.609375 98.148438 -87.945312 91.921875 -93.71875 C 85.703125 -99.5 77.335938 -102.390625 66.828125 -102.390625 Z M 66.828125 -102.390625 "/></g></g></g></g></g></svg>