<svg xmlns="http://www.w3.org/2000/svg" xmlns:xlink="http://www.w3.org/1999/xlink" width="2000" zoomAndPan="magnify" viewBox="0 0 1500 1499.999933" height="2000" preserveAspectRatio="xMidYMid meet" version="1.0"><defs><g/><clipPath id="024f5bd3c7"><rect x="0" width="444" y="0" height="41"/></clipPath></defs><g fill="#ffffff" fill-opacity="1"><g transform="translate(280.846387, 902.249902)"><g><path d="M 524.417969 -333.550781 C 524.417969 -346.988281 509.132812 -350.695312 498.476562 -350.695312 C 461.878906 -350.695312 420.648438 -329.382812 390.996094 -309.460938 C 374.785156 -313.167969 359.03125 -318.726562 343.28125 -324.289062 C 322.898438 -331.234375 302.050781 -337.257812 281.667969 -343.28125 C 261.746094 -380.34375 233.023438 -394.242188 191.328125 -394.242188 C 139.445312 -394.242188 82.460938 -368.761719 46.328125 -332.164062 C 41.695312 -327.53125 27.796875 -314.09375 27.796875 -307.144531 C 27.796875 -306.21875 28.722656 -305.292969 29.648438 -305.292969 C 32.429688 -305.292969 47.714844 -323.824219 50.03125 -326.140625 C 83.851562 -361.8125 142.222656 -387.753906 191.328125 -387.753906 C 227 -387.753906 255.261719 -378.027344 272.402344 -344.671875 C 253.871094 -347.914062 235.804688 -350.695312 216.808594 -350.695312 C 188.550781 -350.695312 160.289062 -346.523438 133.882812 -338.183594 C 71.804688 -318.726562 1.851562 -270.085938 1.851562 -198.277344 C 1.851562 -153.804688 33.820312 -129.25 76.4375 -129.25 C 126.007812 -129.25 186.234375 -163.535156 222.367188 -195.035156 C 261.28125 -228.855469 282.128906 -259.894531 287.6875 -311.777344 C 315.023438 -307.144531 342.355469 -302.050781 369.222656 -296.492188 C 303.441406 -249.238281 246.457031 -195.5 189.941406 -137.589844 C 163.535156 -110.722656 137.589844 -82.460938 108.867188 -57.910156 C 96.359375 -47.714844 82.460938 -37.988281 69.027344 -28.722656 C 56.519531 -25.480469 0 -12.507812 0 5.558594 C 0 10.191406 6.023438 12.507812 9.730469 12.507812 C 18.53125 12.507812 35.207031 2.78125 42.621094 -1.851562 C 60.226562 -13.433594 64.859375 -18.066406 87.09375 -18.066406 C 130.640625 -18.066406 175.113281 0.464844 219.125 0.464844 C 240.4375 0.464844 257.113281 -5.097656 273.792969 -18.53125 C 277.960938 -21.773438 292.785156 -35.207031 292.785156 -40.304688 C 292.785156 -42.15625 291.859375 -43.082031 290.003906 -43.082031 C 288.617188 -43.082031 280.738281 -35.671875 278.886719 -34.28125 C 271.011719 -29.1875 261.28125 -27.796875 252.015625 -27.796875 C 233.023438 -27.796875 180.210938 -36.136719 144.078125 -36.136719 C 129.25 -36.136719 113.964844 -34.28125 99.140625 -32.890625 C 141.761719 -64.859375 184.378906 -96.359375 224.683594 -130.640625 C 256.648438 -157.511719 286.300781 -185.769531 315.484375 -215.417969 C 342.355469 -242.289062 369.222656 -268.230469 397.484375 -293.710938 C 407.210938 -292.785156 416.476562 -291.859375 426.207031 -291.859375 C 460.488281 -291.859375 524.417969 -301.585938 524.417969 -333.550781 Z M 518.394531 -333.550781 C 518.394531 -312.707031 466.972656 -302.511719 449.371094 -302.511719 C 436.398438 -302.511719 423.890625 -303.441406 411.382812 -304.828125 C 433.15625 -322.433594 472.070312 -343.746094 500.792969 -343.746094 C 507.277344 -343.746094 518.394531 -341.890625 518.394531 -333.550781 Z M 280.738281 -313.167969 C 277.960938 -263.597656 252.945312 -230.707031 216.808594 -198.742188 C 181.136719 -167.238281 125.082031 -135.273438 76.4375 -135.273438 C 36.136719 -135.273438 8.339844 -158.902344 8.339844 -200.132812 C 8.339844 -236.265625 33.820312 -269.621094 62.542969 -289.078125 C 100.992188 -315.023438 146.855469 -321.972656 192.257812 -321.972656 C 221.90625 -321.972656 251.089844 -317.339844 280.738281 -313.167969 Z M 280.738281 -313.167969 "/></g></g></g><g fill="#ffffff" fill-opacity="1"><g transform="translate(594.995382, 829.036661)"><g><path d="M 10.421875 -97.78125 L 10.421875 -111.71875 L 27.71875 -111.71875 L 27.71875 -97.78125 Z M 12.265625 0 L 12.265625 -84 L 25.703125 -84 L 25.703125 0 Z M 12.265625 0 "/></g></g></g><g fill="#ffffff" fill-opacity="1"><g transform="translate(631.451368, 829.036661)"><g><path d="M 57.953125 -86.6875 C 68.484375 -86.6875 76.097656 -83.882812 80.796875 -78.28125 C 85.503906 -72.6875 87.859375 -64.457031 87.859375 -53.59375 L 87.859375 0 L 74.421875 0 L 74.421875 -52.078125 C 74.421875 -61.035156 72.597656 -67.164062 68.953125 -70.46875 C 65.316406 -73.78125 60.421875 -75.4375 54.265625 -75.4375 C 44.960938 -75.4375 37.875 -71.820312 33 -64.59375 C 28.132812 -57.375 25.703125 -46.539062 25.703125 -32.09375 L 25.703125 0 L 12.265625 0 L 12.265625 -84 L 25.703125 -84 L 25.703125 -61.984375 C 28.273438 -69.609375 32.222656 -75.628906 37.546875 -80.046875 C 42.867188 -84.472656 49.671875 -86.6875 57.953125 -86.6875 Z M 57.953125 -86.6875 "/></g></g></g><g fill="#ffffff" fill-opacity="1"><g transform="translate(728.21935, 829.036661)"><g><path d="M 39.640625 0 C 31.578125 0 26.171875 -1.59375 23.421875 -4.78125 C 20.679688 -7.976562 19.3125 -12.9375 19.3125 -19.65625 L 19.3125 -73.421875 L 3.359375 -73.421875 L 3.359375 -80.96875 L 20.5 -85.171875 L 25.53125 -102.640625 L 32.765625 -102.640625 L 32.765625 -84 L 60.484375 -84 L 60.484375 -73.421875 L 32.765625 -73.421875 L 32.765625 -10.921875 L 59.46875 -10.921875 L 59.46875 0 Z M 39.640625 0 "/></g></g></g><g fill="#ffffff" fill-opacity="1"><g transform="translate(789.87534, 829.036661)"><g><path d="M 50.234375 -7.5625 C 58.515625 -7.5625 64.695312 -9.296875 68.78125 -12.765625 C 72.875 -16.234375 75.539062 -20.601562 76.78125 -25.875 L 89.046875 -25.875 C 88.484375 -21.613281 86.882812 -17.269531 84.25 -12.84375 C 81.613281 -8.425781 77.523438 -4.734375 71.984375 -1.765625 C 66.441406 1.199219 59.023438 2.6875 49.734375 2.6875 C 40.097656 2.6875 32.195312 0.699219 26.03125 -3.265625 C 19.875 -7.242188 15.335938 -12.617188 12.421875 -19.390625 C 9.515625 -26.171875 8.0625 -33.765625 8.0625 -42.171875 C 8.0625 -50.566406 9.597656 -58.125 12.671875 -64.84375 C 15.753906 -71.5625 20.375 -76.878906 26.53125 -80.796875 C 32.695312 -84.722656 40.429688 -86.6875 49.734375 -86.6875 C 58.128906 -86.6875 65.265625 -84.894531 71.140625 -81.3125 C 77.023438 -77.726562 81.503906 -72.800781 84.578125 -66.53125 C 87.660156 -60.257812 89.203125 -53.035156 89.203125 -44.859375 C 89.203125 -43.734375 89.203125 -42.722656 89.203125 -41.828125 C 89.203125 -40.929688 89.09375 -39.976562 88.875 -38.96875 L 21.34375 -38.96875 C 21.894531 -27.4375 24.742188 -19.316406 29.890625 -14.609375 C 35.046875 -9.910156 41.828125 -7.5625 50.234375 -7.5625 Z M 49.890625 -76.4375 C 41.941406 -76.4375 35.472656 -74.363281 30.484375 -70.21875 C 25.503906 -66.082031 22.566406 -59.03125 21.671875 -49.0625 L 76.109375 -49.0625 C 75.765625 -58.6875 73.269531 -65.65625 68.625 -69.96875 C 63.976562 -74.28125 57.734375 -76.4375 49.890625 -76.4375 Z M 49.890625 -76.4375 "/></g></g></g><g fill="#ffffff" fill-opacity="1"><g transform="translate(883.955311, 829.036661)"><g><path d="M 56.453125 -85.171875 L 59.46875 -85.171875 L 59.46875 -71.90625 L 55.9375 -71.90625 C 47.65625 -72.238281 41.328125 -70.613281 36.953125 -67.03125 C 32.585938 -63.445312 29.617188 -58.519531 28.046875 -52.25 C 26.484375 -45.976562 25.703125 -38.863281 25.703125 -30.90625 L 25.703125 0 L 12.265625 0 L 12.265625 -84 L 25.703125 -84 L 25.703125 -61.828125 C 28.273438 -68.765625 32.050781 -74.390625 37.03125 -78.703125 C 42.019531 -83.015625 48.492188 -85.171875 56.453125 -85.171875 Z M 56.453125 -85.171875 "/></g></g></g><g fill="#ffffff" fill-opacity="1"><g transform="translate(943.595297, 829.036661)"><g><path d="M 37.46875 2.1875 C 29.40625 2.1875 22.769531 0.113281 17.5625 -4.03125 C 12.351562 -8.175781 9.75 -14.222656 9.75 -22.171875 C 9.75 -29.003906 11.734375 -34.546875 15.703125 -38.796875 C 19.679688 -43.054688 26.207031 -45.914062 35.28125 -47.375 L 56.609375 -50.90625 C 61.097656 -51.6875 64.320312 -52.804688 66.28125 -54.265625 C 68.238281 -55.722656 69.21875 -58.019531 69.21875 -61.15625 C 69.21875 -65.40625 67.816406 -68.984375 65.015625 -71.890625 C 62.210938 -74.804688 56.722656 -76.265625 48.546875 -76.265625 C 40.367188 -76.265625 34.515625 -74.53125 30.984375 -71.0625 C 27.460938 -67.59375 25.476562 -63.113281 25.03125 -57.625 L 11.765625 -57.625 C 11.984375 -66.582031 15.203125 -73.691406 21.421875 -78.953125 C 27.640625 -84.222656 36.515625 -86.859375 48.046875 -86.859375 C 59.585938 -86.859375 68.046875 -84.476562 73.421875 -79.71875 C 78.796875 -74.957031 81.484375 -68.769531 81.484375 -61.15625 L 81.484375 -20.828125 C 81.484375 -17.804688 81.535156 -14.613281 81.640625 -11.25 C 81.753906 -7.894531 82.035156 -4.144531 82.484375 0 L 70.21875 0 C 69.882812 -3.582031 69.601562 -6.96875 69.375 -10.15625 C 69.15625 -13.351562 69.046875 -16.519531 69.046875 -19.65625 C 68.035156 -16.289062 66.269531 -12.925781 63.75 -9.5625 C 61.226562 -6.207031 57.835938 -3.410156 53.578125 -1.171875 C 49.328125 1.066406 43.957031 2.1875 37.46875 2.1875 Z M 40.15625 -8.40625 C 46.757812 -8.40625 52.21875 -9.914062 56.53125 -12.9375 C 60.84375 -15.957031 64.035156 -19.875 66.109375 -24.6875 C 68.179688 -29.507812 69.21875 -34.550781 69.21875 -39.8125 L 69.21875 -47.046875 C 67.09375 -45.585938 64.851562 -44.4375 62.5 -43.59375 C 60.144531 -42.757812 57.34375 -42.003906 54.09375 -41.328125 L 40.15625 -38.46875 C 34.4375 -37.351562 30.207031 -35.585938 27.46875 -33.171875 C 24.726562 -30.765625 23.359375 -27.269531 23.359375 -22.6875 C 23.359375 -17.863281 24.925781 -14.273438 28.0625 -11.921875 C 31.195312 -9.578125 35.226562 -8.40625 40.15625 -8.40625 Z M 40.15625 -8.40625 "/></g></g></g><g fill="#ffffff" fill-opacity="1"><g transform="translate(1034.147261, 829.036661)"><g><path d="M 8.0625 -42 C 8.0625 -50.625 9.65625 -58.296875 12.84375 -65.015625 C 16.039062 -71.734375 20.773438 -77.023438 27.046875 -80.890625 C 33.316406 -84.753906 40.988281 -86.6875 50.0625 -86.6875 C 62.71875 -86.6875 72.238281 -83.550781 78.625 -77.28125 C 85.007812 -71.007812 88.535156 -63 89.203125 -53.25 L 76.609375 -53.25 C 75.597656 -60.195312 72.960938 -65.6875 68.703125 -69.71875 C 64.453125 -73.75 58.40625 -75.765625 50.5625 -75.765625 C 41.71875 -75.765625 34.691406 -73.160156 29.484375 -67.953125 C 24.273438 -62.742188 21.671875 -54.09375 21.671875 -42 C 21.671875 -29.789062 24.191406 -21.109375 29.234375 -15.953125 C 34.273438 -10.804688 41.21875 -8.234375 50.0625 -8.234375 C 58.570312 -8.234375 65.066406 -10.414062 69.546875 -14.78125 C 74.023438 -19.15625 76.660156 -24.925781 77.453125 -32.09375 L 90.21875 -32.09375 C 89.882812 -25.707031 88.144531 -19.878906 85 -14.609375 C 81.863281 -9.347656 77.382812 -5.148438 71.5625 -2.015625 C 65.738281 1.117188 58.570312 2.6875 50.0625 2.6875 C 40.875 2.6875 33.171875 0.753906 26.953125 -3.109375 C 20.742188 -6.972656 16.039062 -12.289062 12.84375 -19.0625 C 9.65625 -25.84375 8.0625 -33.488281 8.0625 -42 Z M 8.0625 -42 "/></g></g></g><g fill="#ffffff" fill-opacity="1"><g transform="translate(1128.227254, 829.036661)"><g><path d="M 39.640625 0 C 31.578125 0 26.171875 -1.59375 23.421875 -4.78125 C 20.679688 -7.976562 19.3125 -12.9375 19.3125 -19.65625 L 19.3125 -73.421875 L 3.359375 -73.421875 L 3.359375 -80.96875 L 20.5 -85.171875 L 25.53125 -102.640625 L 32.765625 -102.640625 L 32.765625 -84 L 60.484375 -84 L 60.484375 -73.421875 L 32.765625 -73.421875 L 32.765625 -10.921875 L 59.46875 -10.921875 L 59.46875 0 Z M 39.640625 0 "/></g></g></g><g transform="matrix(1, 0, 0, 1, 746, 845)"><g clip-path="url(#024f5bd3c7)"><g fill="#ffffff" fill-opacity="1"><g transform="translate(0.255291, 31.446707)"><g><path d="M 8.984375 0.296875 C 7.597656 0.296875 6.359375 -0.015625 5.265625 -0.640625 C 4.171875 -1.273438 3.304688 -2.203125 2.671875 -3.421875 C 2.035156 -4.648438 1.71875 -6.113281 1.71875 -7.8125 C 1.71875 -9.53125 2.035156 -11 2.671875 -12.21875 C 3.304688 -13.445312 4.171875 -14.375 5.265625 -15 C 6.359375 -15.632812 7.597656 -15.953125 8.984375 -15.953125 C 10.640625 -15.953125 11.957031 -15.640625 12.9375 -15.015625 C 13.914062 -14.390625 14.625 -13.554688 15.0625 -12.515625 L 13.484375 -11.375 L 13.203125 -11.375 C 12.773438 -12.238281 12.226562 -12.867188 11.5625 -13.265625 C 10.894531 -13.671875 10.035156 -13.875 8.984375 -13.875 C 8.015625 -13.875 7.164062 -13.644531 6.4375 -13.1875 C 5.707031 -12.738281 5.140625 -12.0625 4.734375 -11.15625 C 4.335938 -10.25 4.140625 -9.132812 4.140625 -7.8125 C 4.140625 -6.507812 4.34375 -5.40625 4.75 -4.5 C 5.15625 -3.601562 5.71875 -2.925781 6.4375 -2.46875 C 7.164062 -2.007812 8.015625 -1.78125 8.984375 -1.78125 C 10.066406 -1.78125 10.960938 -2.023438 11.671875 -2.515625 C 12.390625 -3.003906 12.957031 -3.78125 13.375 -4.84375 L 13.671875 -4.84375 L 15.1875 -3.9375 C 14.78125 -2.625 14.050781 -1.585938 13 -0.828125 C 11.957031 -0.078125 10.617188 0.296875 8.984375 0.296875 Z M 8.984375 0.296875 "/></g></g></g><g fill="#ffffff" fill-opacity="1"><g transform="translate(16.390776, 31.446707)"><g><path d="M 2.71875 0 L 2.71875 -21.9375 L 5.03125 -21.9375 L 5.03125 -13.421875 L 5.328125 -13.375 C 6.453125 -15.09375 8.066406 -15.953125 10.171875 -15.953125 C 12.054688 -15.953125 13.421875 -15.46875 14.265625 -14.5 C 15.109375 -13.539062 15.53125 -12.066406 15.53125 -10.078125 L 15.53125 0 L 13.21875 0 L 13.21875 -10.015625 C 13.21875 -10.960938 13.097656 -11.722656 12.859375 -12.296875 C 12.617188 -12.867188 12.242188 -13.285156 11.734375 -13.546875 C 11.234375 -13.804688 10.570312 -13.9375 9.75 -13.9375 C 8.332031 -13.9375 7.191406 -13.476562 6.328125 -12.5625 C 5.460938 -11.644531 5.03125 -10.132812 5.03125 -8.03125 L 5.03125 0 Z M 2.71875 0 "/></g></g></g><g fill="#ffffff" fill-opacity="1"><g transform="translate(34.413699, 31.446707)"><g><path d="M 6.453125 0.296875 C 4.910156 0.296875 3.707031 -0.101562 2.84375 -0.90625 C 1.976562 -1.707031 1.546875 -2.859375 1.546875 -4.359375 C 1.546875 -5.285156 1.738281 -6.066406 2.125 -6.703125 C 2.507812 -7.335938 3.101562 -7.859375 3.90625 -8.265625 C 4.707031 -8.671875 5.753906 -8.984375 7.046875 -9.203125 C 8.179688 -9.390625 9.046875 -9.597656 9.640625 -9.828125 C 10.234375 -10.066406 10.628906 -10.332031 10.828125 -10.625 C 11.035156 -10.914062 11.140625 -11.285156 11.140625 -11.734375 C 11.140625 -12.441406 10.894531 -12.984375 10.40625 -13.359375 C 9.914062 -13.742188 9.132812 -13.9375 8.0625 -13.9375 C 7.050781 -13.9375 6.179688 -13.738281 5.453125 -13.34375 C 4.734375 -12.945312 4.070312 -12.363281 3.46875 -11.59375 L 3.171875 -11.59375 L 2.046875 -13.203125 C 2.703125 -14.035156 3.539062 -14.703125 4.5625 -15.203125 C 5.59375 -15.703125 6.757812 -15.953125 8.0625 -15.953125 C 9.90625 -15.953125 11.265625 -15.546875 12.140625 -14.734375 C 13.015625 -13.929688 13.453125 -12.8125 13.453125 -11.375 L 13.453125 -3.078125 C 13.453125 -2.210938 13.820312 -1.78125 14.5625 -1.78125 C 14.800781 -1.78125 15.035156 -1.820312 15.265625 -1.90625 L 15.46875 -1.84375 L 15.734375 -0.234375 C 15.566406 -0.128906 15.34375 -0.046875 15.0625 0.015625 C 14.78125 0.078125 14.492188 0.109375 14.203125 0.109375 C 13.335938 0.109375 12.6875 -0.078125 12.25 -0.453125 C 11.8125 -0.828125 11.53125 -1.382812 11.40625 -2.125 L 11.109375 -2.15625 C 10.660156 -1.332031 10.054688 -0.71875 9.296875 -0.3125 C 8.546875 0.0898438 7.597656 0.296875 6.453125 0.296875 Z M 6.96875 -1.546875 C 7.832031 -1.546875 8.582031 -1.742188 9.21875 -2.140625 C 9.863281 -2.546875 10.351562 -3.113281 10.6875 -3.84375 C 11.03125 -4.570312 11.203125 -5.414062 11.203125 -6.375 L 11.203125 -8.359375 L 10.9375 -8.421875 C 10.59375 -8.171875 10.164062 -7.960938 9.65625 -7.796875 C 9.15625 -7.628906 8.457031 -7.476562 7.5625 -7.34375 C 6.65625 -7.226562 5.929688 -7.039062 5.390625 -6.78125 C 4.859375 -6.53125 4.476562 -6.207031 4.25 -5.8125 C 4.03125 -5.414062 3.921875 -4.929688 3.921875 -4.359375 C 3.921875 -3.441406 4.1875 -2.742188 4.71875 -2.265625 C 5.257812 -1.785156 6.007812 -1.546875 6.96875 -1.546875 Z M 6.96875 -1.546875 "/></g></g></g><g fill="#ffffff" fill-opacity="1"><g transform="translate(50.605949, 31.446707)"><g><path d="M 2.71875 0 L 2.71875 -15.65625 L 4.921875 -15.65625 L 4.921875 -13.203125 L 5.21875 -13.125 C 5.738281 -14.039062 6.398438 -14.738281 7.203125 -15.21875 C 8.015625 -15.707031 9.003906 -15.953125 10.171875 -15.953125 C 12.054688 -15.953125 13.421875 -15.46875 14.265625 -14.5 C 15.109375 -13.539062 15.53125 -12.066406 15.53125 -10.078125 L 15.53125 0 L 13.21875 0 L 13.21875 -10.015625 C 13.21875 -10.960938 13.097656 -11.722656 12.859375 -12.296875 C 12.617188 -12.867188 12.242188 -13.285156 11.734375 -13.546875 C 11.234375 -13.804688 10.570312 -13.9375 9.75 -13.9375 C 8.34375 -13.9375 7.203125 -13.46875 6.328125 -12.53125 C 5.460938 -11.601562 5.03125 -10.101562 5.03125 -8.03125 L 5.03125 0 Z M 2.71875 0 "/></g></g></g><g fill="#ffffff" fill-opacity="1"><g transform="translate(68.628871, 31.446707)"><g><path d="M 8.0625 6.640625 C 5.59375 6.640625 3.789062 6.226562 2.65625 5.40625 C 1.519531 4.582031 0.953125 3.488281 0.953125 2.125 C 0.953125 1.25 1.21875 0.550781 1.75 0.03125 C 2.28125 -0.488281 3.050781 -0.863281 4.0625 -1.09375 L 4.0625 -1.390625 C 3.570312 -1.660156 3.207031 -1.976562 2.96875 -2.34375 C 2.726562 -2.71875 2.609375 -3.160156 2.609375 -3.671875 C 2.609375 -4.273438 2.800781 -4.765625 3.1875 -5.140625 C 3.570312 -5.523438 4.140625 -5.816406 4.890625 -6.015625 L 4.890625 -6.3125 C 3.191406 -7.207031 2.34375 -8.671875 2.34375 -10.703125 C 2.34375 -11.722656 2.570312 -12.628906 3.03125 -13.421875 C 3.5 -14.210938 4.160156 -14.832031 5.015625 -15.28125 C 5.878906 -15.726562 6.882812 -15.953125 8.03125 -15.953125 C 9.34375 -15.953125 10.441406 -15.660156 11.328125 -15.078125 C 11.660156 -15.453125 11.90625 -15.847656 12.0625 -16.265625 C 12.226562 -16.691406 12.335938 -17.171875 12.390625 -17.703125 L 12.6875 -17.875 L 14.59375 -17.421875 C 14.5 -16.628906 14.257812 -15.957031 13.875 -15.40625 C 13.488281 -14.863281 12.945312 -14.410156 12.25 -14.046875 L 12.25 -13.75 C 12.75 -13.351562 13.117188 -12.882812 13.359375 -12.34375 C 13.597656 -11.8125 13.71875 -11.191406 13.71875 -10.484375 C 13.71875 -9.503906 13.476562 -8.617188 13 -7.828125 C 12.53125 -7.046875 11.863281 -6.429688 11 -5.984375 C 10.144531 -5.535156 9.15625 -5.3125 8.03125 -5.3125 C 7.894531 -5.3125 7.660156 -5.316406 7.328125 -5.328125 C 6.941406 -5.347656 6.660156 -5.359375 6.484375 -5.359375 C 5.992188 -5.359375 5.601562 -5.226562 5.3125 -4.96875 C 5.019531 -4.71875 4.875 -4.394531 4.875 -4 C 4.875 -3.507812 5.03125 -3.144531 5.34375 -2.90625 C 5.65625 -2.675781 6.175781 -2.550781 6.90625 -2.53125 L 10.609375 -2.390625 C 12.210938 -2.335938 13.398438 -1.96875 14.171875 -1.28125 C 14.941406 -0.59375 15.328125 0.375 15.328125 1.625 C 15.328125 2.5625 15.078125 3.40625 14.578125 4.15625 C 14.078125 4.914062 13.28125 5.519531 12.1875 5.96875 C 11.101562 6.414062 9.726562 6.640625 8.0625 6.640625 Z M 8.03125 -7.296875 C 9.132812 -7.296875 9.988281 -7.582031 10.59375 -8.15625 C 11.207031 -8.738281 11.515625 -9.550781 11.515625 -10.59375 C 11.515625 -11.664062 11.210938 -12.492188 10.609375 -13.078125 C 10.003906 -13.671875 9.144531 -13.96875 8.03125 -13.96875 C 6.914062 -13.96875 6.0625 -13.675781 5.46875 -13.09375 C 4.882812 -12.507812 4.59375 -11.675781 4.59375 -10.59375 C 4.59375 -9.539062 4.882812 -8.726562 5.46875 -8.15625 C 6.0625 -7.582031 6.914062 -7.296875 8.03125 -7.296875 Z M 8.0625 4.65625 C 9.21875 4.65625 10.160156 4.523438 10.890625 4.265625 C 11.617188 4.015625 12.144531 3.675781 12.46875 3.25 C 12.789062 2.832031 12.953125 2.363281 12.953125 1.84375 C 12.953125 1.382812 12.863281 1.007812 12.6875 0.71875 C 12.519531 0.4375 12.238281 0.222656 11.84375 0.078125 C 11.457031 -0.0546875 10.929688 -0.144531 10.265625 -0.1875 L 6.75 -0.359375 L 6.265625 -0.359375 C 4.304688 -0.328125 3.328125 0.4375 3.328125 1.9375 C 3.328125 3.75 4.90625 4.65625 8.0625 4.65625 Z M 8.0625 4.65625 "/></g></g></g><g fill="#ffffff" fill-opacity="1"><g transform="translate(84.665015, 31.446707)"><g><path d="M 3.890625 -18.671875 C 3.398438 -18.671875 3 -18.820312 2.6875 -19.125 C 2.382812 -19.4375 2.234375 -19.832031 2.234375 -20.3125 C 2.234375 -20.78125 2.382812 -21.164062 2.6875 -21.46875 C 3 -21.78125 3.398438 -21.9375 3.890625 -21.9375 C 4.378906 -21.9375 4.773438 -21.78125 5.078125 -21.46875 C 5.390625 -21.164062 5.546875 -20.78125 5.546875 -20.3125 C 5.546875 -19.832031 5.390625 -19.4375 5.078125 -19.125 C 4.773438 -18.820312 4.378906 -18.671875 3.890625 -18.671875 Z M 2.71875 0 L 2.71875 -15.65625 L 5.03125 -15.65625 L 5.03125 0 Z M 2.71875 0 "/></g></g></g><g fill="#ffffff" fill-opacity="1"><g transform="translate(92.427651, 31.446707)"><g><path d="M 2.71875 0 L 2.71875 -15.65625 L 4.921875 -15.65625 L 4.921875 -13.203125 L 5.21875 -13.125 C 5.738281 -14.039062 6.398438 -14.738281 7.203125 -15.21875 C 8.015625 -15.707031 9.003906 -15.953125 10.171875 -15.953125 C 12.054688 -15.953125 13.421875 -15.46875 14.265625 -14.5 C 15.109375 -13.539062 15.53125 -12.066406 15.53125 -10.078125 L 15.53125 0 L 13.21875 0 L 13.21875 -10.015625 C 13.21875 -10.960938 13.097656 -11.722656 12.859375 -12.296875 C 12.617188 -12.867188 12.242188 -13.285156 11.734375 -13.546875 C 11.234375 -13.804688 10.570312 -13.9375 9.75 -13.9375 C 8.34375 -13.9375 7.203125 -13.46875 6.328125 -12.53125 C 5.460938 -11.601562 5.03125 -10.101562 5.03125 -8.03125 L 5.03125 0 Z M 2.71875 0 "/></g></g></g><g fill="#ffffff" fill-opacity="1"><g transform="translate(110.450569, 31.446707)"><g><path d="M 8.0625 6.640625 C 5.59375 6.640625 3.789062 6.226562 2.65625 5.40625 C 1.519531 4.582031 0.953125 3.488281 0.953125 2.125 C 0.953125 1.25 1.21875 0.550781 1.75 0.03125 C 2.28125 -0.488281 3.050781 -0.863281 4.0625 -1.09375 L 4.0625 -1.390625 C 3.570312 -1.660156 3.207031 -1.976562 2.96875 -2.34375 C 2.726562 -2.71875 2.609375 -3.160156 2.609375 -3.671875 C 2.609375 -4.273438 2.800781 -4.765625 3.1875 -5.140625 C 3.570312 -5.523438 4.140625 -5.816406 4.890625 -6.015625 L 4.890625 -6.3125 C 3.191406 -7.207031 2.34375 -8.671875 2.34375 -10.703125 C 2.34375 -11.722656 2.570312 -12.628906 3.03125 -13.421875 C 3.5 -14.210938 4.160156 -14.832031 5.015625 -15.28125 C 5.878906 -15.726562 6.882812 -15.953125 8.03125 -15.953125 C 9.34375 -15.953125 10.441406 -15.660156 11.328125 -15.078125 C 11.660156 -15.453125 11.90625 -15.847656 12.0625 -16.265625 C 12.226562 -16.691406 12.335938 -17.171875 12.390625 -17.703125 L 12.6875 -17.875 L 14.59375 -17.421875 C 14.5 -16.628906 14.257812 -15.957031 13.875 -15.40625 C 13.488281 -14.863281 12.945312 -14.410156 12.25 -14.046875 L 12.25 -13.75 C 12.75 -13.351562 13.117188 -12.882812 13.359375 -12.34375 C 13.597656 -11.8125 13.71875 -11.191406 13.71875 -10.484375 C 13.71875 -9.503906 13.476562 -8.617188 13 -7.828125 C 12.53125 -7.046875 11.863281 -6.429688 11 -5.984375 C 10.144531 -5.535156 9.15625 -5.3125 8.03125 -5.3125 C 7.894531 -5.3125 7.660156 -5.316406 7.328125 -5.328125 C 6.941406 -5.347656 6.660156 -5.359375 6.484375 -5.359375 C 5.992188 -5.359375 5.601562 -5.226562 5.3125 -4.96875 C 5.019531 -4.71875 4.875 -4.394531 4.875 -4 C 4.875 -3.507812 5.03125 -3.144531 5.34375 -2.90625 C 5.65625 -2.675781 6.175781 -2.550781 6.90625 -2.53125 L 10.609375 -2.390625 C 12.210938 -2.335938 13.398438 -1.96875 14.171875 -1.28125 C 14.941406 -0.59375 15.328125 0.375 15.328125 1.625 C 15.328125 2.5625 15.078125 3.40625 14.578125 4.15625 C 14.078125 4.914062 13.28125 5.519531 12.1875 5.96875 C 11.101562 6.414062 9.726562 6.640625 8.0625 6.640625 Z M 8.03125 -7.296875 C 9.132812 -7.296875 9.988281 -7.582031 10.59375 -8.15625 C 11.207031 -8.738281 11.515625 -9.550781 11.515625 -10.59375 C 11.515625 -11.664062 11.210938 -12.492188 10.609375 -13.078125 C 10.003906 -13.671875 9.144531 -13.96875 8.03125 -13.96875 C 6.914062 -13.96875 6.0625 -13.675781 5.46875 -13.09375 C 4.882812 -12.507812 4.59375 -11.675781 4.59375 -10.59375 C 4.59375 -9.539062 4.882812 -8.726562 5.46875 -8.15625 C 6.0625 -7.582031 6.914062 -7.296875 8.03125 -7.296875 Z M 8.0625 4.65625 C 9.21875 4.65625 10.160156 4.523438 10.890625 4.265625 C 11.617188 4.015625 12.144531 3.675781 12.46875 3.25 C 12.789062 2.832031 12.953125 2.363281 12.953125 1.84375 C 12.953125 1.382812 12.863281 1.007812 12.6875 0.71875 C 12.519531 0.4375 12.238281 0.222656 11.84375 0.078125 C 11.457031 -0.0546875 10.929688 -0.144531 10.265625 -0.1875 L 6.75 -0.359375 L 6.265625 -0.359375 C 4.304688 -0.328125 3.328125 0.4375 3.328125 1.9375 C 3.328125 3.75 4.90625 4.65625 8.0625 4.65625 Z M 8.0625 4.65625 "/></g></g></g><g fill="#ffffff" fill-opacity="1"><g transform="translate(126.489087, 31.446707)"><g/></g></g><g fill="#ffffff" fill-opacity="1"><g transform="translate(133.613108, 31.446707)"><g/></g></g><g fill="#ffffff" fill-opacity="1"><g transform="translate(140.741547, 31.446707)"><g><path d="M 10.59375 -2.484375 L 11.328125 -0.828125 C 10.953125 -0.453125 10.460938 -0.171875 9.859375 0.015625 C 9.265625 0.203125 8.617188 0.296875 7.921875 0.296875 C 4.929688 0.296875 3.4375 -1.21875 3.4375 -4.25 L 3.4375 -13.765625 L 0.703125 -13.765625 L 0.703125 -15.671875 L 3.4375 -15.671875 L 3.4375 -18.96875 L 5.75 -19.359375 L 5.75 -15.671875 L 10.78125 -15.671875 L 10.78125 -13.765625 L 5.75 -13.765625 L 5.75 -4.46875 C 5.75 -2.675781 6.53125 -1.78125 8.09375 -1.78125 C 8.9375 -1.78125 9.664062 -2.015625 10.28125 -2.484375 Z M 10.59375 -2.484375 "/></g></g></g><g fill="#ffffff" fill-opacity="1"><g transform="translate(152.662221, 31.446707)"><g><path d="M 2.71875 0 L 2.71875 -21.9375 L 5.03125 -21.9375 L 5.03125 -13.421875 L 5.328125 -13.375 C 6.453125 -15.09375 8.066406 -15.953125 10.171875 -15.953125 C 12.054688 -15.953125 13.421875 -15.46875 14.265625 -14.5 C 15.109375 -13.539062 15.53125 -12.066406 15.53125 -10.078125 L 15.53125 0 L 13.21875 0 L 13.21875 -10.015625 C 13.21875 -10.960938 13.097656 -11.722656 12.859375 -12.296875 C 12.617188 -12.867188 12.242188 -13.285156 11.734375 -13.546875 C 11.234375 -13.804688 10.570312 -13.9375 9.75 -13.9375 C 8.332031 -13.9375 7.191406 -13.476562 6.328125 -12.5625 C 5.460938 -11.644531 5.03125 -10.132812 5.03125 -8.03125 L 5.03125 0 Z M 2.71875 0 "/></g></g></g><g fill="#ffffff" fill-opacity="1"><g transform="translate(170.685143, 31.446707)"><g><path d="M 14.921875 -7.296875 L 4.15625 -7.296875 C 4.21875 -5.390625 4.671875 -3.992188 5.515625 -3.109375 C 6.367188 -2.222656 7.535156 -1.78125 9.015625 -1.78125 C 10.128906 -1.78125 11.023438 -1.976562 11.703125 -2.375 C 12.390625 -2.769531 12.925781 -3.394531 13.3125 -4.25 L 13.609375 -4.25 L 15.109375 -3.34375 C 14.660156 -2.207031 13.9375 -1.316406 12.9375 -0.671875 C 11.9375 -0.0234375 10.628906 0.296875 9.015625 0.296875 C 7.492188 0.296875 6.191406 0 5.109375 -0.59375 C 4.023438 -1.1875 3.1875 -2.085938 2.59375 -3.296875 C 2.007812 -4.515625 1.71875 -6.019531 1.71875 -7.8125 C 1.71875 -9.59375 2.023438 -11.09375 2.640625 -12.3125 C 3.265625 -13.53125 4.113281 -14.441406 5.1875 -15.046875 C 6.257812 -15.648438 7.488281 -15.953125 8.875 -15.953125 C 10.875 -15.953125 12.4375 -15.382812 13.5625 -14.25 C 14.6875 -13.125 15.253906 -11.445312 15.265625 -9.21875 C 15.265625 -8.351562 15.25 -7.769531 15.21875 -7.46875 Z M 12.984375 -9.21875 C 12.941406 -10.882812 12.570312 -12.09375 11.875 -12.84375 C 11.175781 -13.601562 10.175781 -13.984375 8.875 -13.984375 C 7.5 -13.984375 6.421875 -13.601562 5.640625 -12.84375 C 4.859375 -12.082031 4.382812 -10.875 4.21875 -9.21875 Z M 12.984375 -9.21875 "/></g></g></g><g fill="#ffffff" fill-opacity="1"><g transform="translate(187.374085, 31.446707)"><g/></g></g><g fill="#ffffff" fill-opacity="1"><g transform="translate(194.498106, 31.446707)"><g><path d="M 14.921875 -7.296875 L 4.15625 -7.296875 C 4.21875 -5.390625 4.671875 -3.992188 5.515625 -3.109375 C 6.367188 -2.222656 7.535156 -1.78125 9.015625 -1.78125 C 10.128906 -1.78125 11.023438 -1.976562 11.703125 -2.375 C 12.390625 -2.769531 12.925781 -3.394531 13.3125 -4.25 L 13.609375 -4.25 L 15.109375 -3.34375 C 14.660156 -2.207031 13.9375 -1.316406 12.9375 -0.671875 C 11.9375 -0.0234375 10.628906 0.296875 9.015625 0.296875 C 7.492188 0.296875 6.191406 0 5.109375 -0.59375 C 4.023438 -1.1875 3.1875 -2.085938 2.59375 -3.296875 C 2.007812 -4.515625 1.71875 -6.019531 1.71875 -7.8125 C 1.71875 -9.59375 2.023438 -11.09375 2.640625 -12.3125 C 3.265625 -13.53125 4.113281 -14.441406 5.1875 -15.046875 C 6.257812 -15.648438 7.488281 -15.953125 8.875 -15.953125 C 10.875 -15.953125 12.4375 -15.382812 13.5625 -14.25 C 14.6875 -13.125 15.253906 -11.445312 15.265625 -9.21875 C 15.265625 -8.351562 15.25 -7.769531 15.21875 -7.46875 Z M 12.984375 -9.21875 C 12.941406 -10.882812 12.570312 -12.09375 11.875 -12.84375 C 11.175781 -13.601562 10.175781 -13.984375 8.875 -13.984375 C 7.5 -13.984375 6.421875 -13.601562 5.640625 -12.84375 C 4.859375 -12.082031 4.382812 -10.875 4.21875 -9.21875 Z M 12.984375 -9.21875 "/></g></g></g><g fill="#ffffff" fill-opacity="1"><g transform="translate(211.187049, 31.446707)"><g><path d="M 8.109375 0.296875 C 6.859375 0.296875 5.75 0 4.78125 -0.59375 C 3.820312 -1.195312 3.070312 -2.101562 2.53125 -3.3125 C 1.988281 -4.53125 1.71875 -6.03125 1.71875 -7.8125 C 1.71875 -9.601562 2 -11.101562 2.5625 -12.3125 C 3.132812 -13.53125 3.921875 -14.441406 4.921875 -15.046875 C 5.921875 -15.648438 7.078125 -15.953125 8.390625 -15.953125 C 9.429688 -15.953125 10.363281 -15.753906 11.1875 -15.359375 C 12.019531 -14.960938 12.738281 -14.316406 13.34375 -13.421875 L 13.640625 -13.484375 L 13.640625 -21.9375 L 15.953125 -21.9375 L 15.953125 0 L 13.640625 0 L 13.640625 -2.28125 L 13.34375 -2.34375 C 12.832031 -1.5625 12.140625 -0.925781 11.265625 -0.4375 C 10.390625 0.0507812 9.335938 0.296875 8.109375 0.296875 Z M 8.84375 -1.78125 C 10.300781 -1.78125 11.460938 -2.273438 12.328125 -3.265625 C 13.203125 -4.265625 13.640625 -5.78125 13.640625 -7.8125 C 13.640625 -9.863281 13.203125 -11.382812 12.328125 -12.375 C 11.460938 -13.375 10.300781 -13.875 8.84375 -13.875 C 7.332031 -13.875 6.171875 -13.382812 5.359375 -12.40625 C 4.546875 -11.4375 4.140625 -9.90625 4.140625 -7.8125 C 4.140625 -3.789062 5.707031 -1.78125 8.84375 -1.78125 Z M 8.84375 -1.78125 "/></g></g></g><g fill="#ffffff" fill-opacity="1"><g transform="translate(229.876969, 31.446707)"><g><path d="M 7.734375 0.296875 C 5.960938 0.296875 4.644531 -0.171875 3.78125 -1.109375 C 2.914062 -2.046875 2.484375 -3.414062 2.484375 -5.21875 L 2.484375 -15.65625 L 4.796875 -15.65625 L 4.796875 -5.28125 C 4.796875 -2.90625 5.910156 -1.71875 8.140625 -1.71875 C 9.566406 -1.71875 10.691406 -2.179688 11.515625 -3.109375 C 12.335938 -4.035156 12.75 -5.539062 12.75 -7.625 L 12.75 -15.65625 L 15.0625 -15.65625 L 15.0625 0 L 12.875 0 L 12.875 -2.453125 L 12.578125 -2.53125 C 12.035156 -1.570312 11.382812 -0.859375 10.625 -0.390625 C 9.875 0.0664062 8.910156 0.296875 7.734375 0.296875 Z M 7.734375 0.296875 "/></g></g></g><g fill="#ffffff" fill-opacity="1"><g transform="translate(247.658637, 31.446707)"><g><path d="M 8.984375 0.296875 C 7.597656 0.296875 6.359375 -0.015625 5.265625 -0.640625 C 4.171875 -1.273438 3.304688 -2.203125 2.671875 -3.421875 C 2.035156 -4.648438 1.71875 -6.113281 1.71875 -7.8125 C 1.71875 -9.53125 2.035156 -11 2.671875 -12.21875 C 3.304688 -13.445312 4.171875 -14.375 5.265625 -15 C 6.359375 -15.632812 7.597656 -15.953125 8.984375 -15.953125 C 10.640625 -15.953125 11.957031 -15.640625 12.9375 -15.015625 C 13.914062 -14.390625 14.625 -13.554688 15.0625 -12.515625 L 13.484375 -11.375 L 13.203125 -11.375 C 12.773438 -12.238281 12.226562 -12.867188 11.5625 -13.265625 C 10.894531 -13.671875 10.035156 -13.875 8.984375 -13.875 C 8.015625 -13.875 7.164062 -13.644531 6.4375 -13.1875 C 5.707031 -12.738281 5.140625 -12.0625 4.734375 -11.15625 C 4.335938 -10.25 4.140625 -9.132812 4.140625 -7.8125 C 4.140625 -6.507812 4.34375 -5.40625 4.75 -4.5 C 5.15625 -3.601562 5.71875 -2.925781 6.4375 -2.46875 C 7.164062 -2.007812 8.015625 -1.78125 8.984375 -1.78125 C 10.066406 -1.78125 10.960938 -2.023438 11.671875 -2.515625 C 12.390625 -3.003906 12.957031 -3.78125 13.375 -4.84375 L 13.671875 -4.84375 L 15.1875 -3.9375 C 14.78125 -2.625 14.050781 -1.585938 13 -0.828125 C 11.957031 -0.078125 10.617188 0.296875 8.984375 0.296875 Z M 8.984375 0.296875 "/></g></g></g><g fill="#ffffff" fill-opacity="1"><g transform="translate(263.794127, 31.446707)"><g><path d="M 6.453125 0.296875 C 4.910156 0.296875 3.707031 -0.101562 2.84375 -0.90625 C 1.976562 -1.707031 1.546875 -2.859375 1.546875 -4.359375 C 1.546875 -5.285156 1.738281 -6.066406 2.125 -6.703125 C 2.507812 -7.335938 3.101562 -7.859375 3.90625 -8.265625 C 4.707031 -8.671875 5.753906 -8.984375 7.046875 -9.203125 C 8.179688 -9.390625 9.046875 -9.597656 9.640625 -9.828125 C 10.234375 -10.066406 10.628906 -10.332031 10.828125 -10.625 C 11.035156 -10.914062 11.140625 -11.285156 11.140625 -11.734375 C 11.140625 -12.441406 10.894531 -12.984375 10.40625 -13.359375 C 9.914062 -13.742188 9.132812 -13.9375 8.0625 -13.9375 C 7.050781 -13.9375 6.179688 -13.738281 5.453125 -13.34375 C 4.734375 -12.945312 4.070312 -12.363281 3.46875 -11.59375 L 3.171875 -11.59375 L 2.046875 -13.203125 C 2.703125 -14.035156 3.539062 -14.703125 4.5625 -15.203125 C 5.59375 -15.703125 6.757812 -15.953125 8.0625 -15.953125 C 9.90625 -15.953125 11.265625 -15.546875 12.140625 -14.734375 C 13.015625 -13.929688 13.453125 -12.8125 13.453125 -11.375 L 13.453125 -3.078125 C 13.453125 -2.210938 13.820312 -1.78125 14.5625 -1.78125 C 14.800781 -1.78125 15.035156 -1.820312 15.265625 -1.90625 L 15.46875 -1.84375 L 15.734375 -0.234375 C 15.566406 -0.128906 15.34375 -0.046875 15.0625 0.015625 C 14.78125 0.078125 14.492188 0.109375 14.203125 0.109375 C 13.335938 0.109375 12.6875 -0.078125 12.25 -0.453125 C 11.8125 -0.828125 11.53125 -1.382812 11.40625 -2.125 L 11.109375 -2.15625 C 10.660156 -1.332031 10.054688 -0.71875 9.296875 -0.3125 C 8.546875 0.0898438 7.597656 0.296875 6.453125 0.296875 Z M 6.96875 -1.546875 C 7.832031 -1.546875 8.582031 -1.742188 9.21875 -2.140625 C 9.863281 -2.546875 10.351562 -3.113281 10.6875 -3.84375 C 11.03125 -4.570312 11.203125 -5.414062 11.203125 -6.375 L 11.203125 -8.359375 L 10.9375 -8.421875 C 10.59375 -8.171875 10.164062 -7.960938 9.65625 -7.796875 C 9.15625 -7.628906 8.457031 -7.476562 7.5625 -7.34375 C 6.65625 -7.226562 5.929688 -7.039062 5.390625 -6.78125 C 4.859375 -6.53125 4.476562 -6.207031 4.25 -5.8125 C 4.03125 -5.414062 3.921875 -4.929688 3.921875 -4.359375 C 3.921875 -3.441406 4.1875 -2.742188 4.71875 -2.265625 C 5.257812 -1.785156 6.007812 -1.546875 6.96875 -1.546875 Z M 6.96875 -1.546875 "/></g></g></g><g fill="#ffffff" fill-opacity="1"><g transform="translate(279.801888, 31.446707)"><g><path d="M 10.59375 -2.484375 L 11.328125 -0.828125 C 10.953125 -0.453125 10.460938 -0.171875 9.859375 0.015625 C 9.265625 0.203125 8.617188 0.296875 7.921875 0.296875 C 4.929688 0.296875 3.4375 -1.21875 3.4375 -4.25 L 3.4375 -13.765625 L 0.703125 -13.765625 L 0.703125 -15.671875 L 3.4375 -15.671875 L 3.4375 -18.96875 L 5.75 -19.359375 L 5.75 -15.671875 L 10.78125 -15.671875 L 10.78125 -13.765625 L 5.75 -13.765625 L 5.75 -4.46875 C 5.75 -2.675781 6.53125 -1.78125 8.09375 -1.78125 C 8.9375 -1.78125 9.664062 -2.015625 10.28125 -2.484375 Z M 10.59375 -2.484375 "/></g></g></g><g fill="#ffffff" fill-opacity="1"><g transform="translate(291.722561, 31.446707)"><g><path d="M 3.890625 -18.671875 C 3.398438 -18.671875 3 -18.820312 2.6875 -19.125 C 2.382812 -19.4375 2.234375 -19.832031 2.234375 -20.3125 C 2.234375 -20.78125 2.382812 -21.164062 2.6875 -21.46875 C 3 -21.78125 3.398438 -21.9375 3.890625 -21.9375 C 4.378906 -21.9375 4.773438 -21.78125 5.078125 -21.46875 C 5.390625 -21.164062 5.546875 -20.78125 5.546875 -20.3125 C 5.546875 -19.832031 5.390625 -19.4375 5.078125 -19.125 C 4.773438 -18.820312 4.378906 -18.671875 3.890625 -18.671875 Z M 2.71875 0 L 2.71875 -15.65625 L 5.03125 -15.65625 L 5.03125 0 Z M 2.71875 0 "/></g></g></g><g fill="#ffffff" fill-opacity="1"><g transform="translate(299.485192, 31.446707)"><g><path d="M 8.984375 0.296875 C 7.503906 0.296875 6.21875 -0.015625 5.125 -0.640625 C 4.03125 -1.265625 3.1875 -2.179688 2.59375 -3.390625 C 2.007812 -4.609375 1.71875 -6.082031 1.71875 -7.8125 C 1.71875 -9.550781 2.007812 -11.03125 2.59375 -12.25 C 3.1875 -13.46875 4.03125 -14.390625 5.125 -15.015625 C 6.21875 -15.640625 7.503906 -15.953125 8.984375 -15.953125 C 10.460938 -15.953125 11.742188 -15.640625 12.828125 -15.015625 C 13.921875 -14.390625 14.765625 -13.46875 15.359375 -12.25 C 15.953125 -11.03125 16.25 -9.550781 16.25 -7.8125 C 16.25 -6.082031 15.953125 -4.609375 15.359375 -3.390625 C 14.765625 -2.179688 13.921875 -1.265625 12.828125 -0.640625 C 11.742188 -0.015625 10.460938 0.296875 8.984375 0.296875 Z M 8.984375 -1.78125 C 10.546875 -1.78125 11.738281 -2.269531 12.5625 -3.25 C 13.394531 -4.226562 13.8125 -5.75 13.8125 -7.8125 C 13.8125 -9.882812 13.394531 -11.410156 12.5625 -12.390625 C 11.738281 -13.378906 10.546875 -13.875 8.984375 -13.875 C 7.421875 -13.875 6.222656 -13.378906 5.390625 -12.390625 C 4.554688 -11.398438 4.140625 -9.875 4.140625 -7.8125 C 4.140625 -5.75 4.554688 -4.226562 5.390625 -3.25 C 6.222656 -2.269531 7.421875 -1.78125 8.984375 -1.78125 Z M 8.984375 -1.78125 "/></g></g></g><g fill="#ffffff" fill-opacity="1"><g transform="translate(317.451344, 31.446707)"><g><path d="M 2.71875 0 L 2.71875 -15.65625 L 4.921875 -15.65625 L 4.921875 -13.203125 L 5.21875 -13.125 C 5.738281 -14.039062 6.398438 -14.738281 7.203125 -15.21875 C 8.015625 -15.707031 9.003906 -15.953125 10.171875 -15.953125 C 12.054688 -15.953125 13.421875 -15.46875 14.265625 -14.5 C 15.109375 -13.539062 15.53125 -12.066406 15.53125 -10.078125 L 15.53125 0 L 13.21875 0 L 13.21875 -10.015625 C 13.21875 -10.960938 13.097656 -11.722656 12.859375 -12.296875 C 12.617188 -12.867188 12.242188 -13.285156 11.734375 -13.546875 C 11.234375 -13.804688 10.570312 -13.9375 9.75 -13.9375 C 8.34375 -13.9375 7.203125 -13.46875 6.328125 -12.53125 C 5.460938 -11.601562 5.03125 -10.101562 5.03125 -8.03125 L 5.03125 0 Z M 2.71875 0 "/></g></g></g><g fill="#ffffff" fill-opacity="1"><g transform="translate(335.474272, 31.446707)"><g/></g></g><g fill="#ffffff" fill-opacity="1"><g transform="translate(342.598278, 31.446707)"><g><path d="M 7.140625 0.296875 C 6.148438 0.296875 5.238281 0.164062 4.40625 -0.09375 C 3.570312 -0.351562 2.863281 -0.707031 2.28125 -1.15625 C 1.707031 -1.613281 1.300781 -2.128906 1.0625 -2.703125 L 2.421875 -4.109375 L 2.71875 -4.109375 C 3.226562 -3.335938 3.84375 -2.753906 4.5625 -2.359375 C 5.28125 -1.972656 6.140625 -1.78125 7.140625 -1.78125 C 8.296875 -1.78125 9.171875 -2.003906 9.765625 -2.453125 C 10.367188 -2.898438 10.671875 -3.523438 10.671875 -4.328125 C 10.671875 -4.941406 10.488281 -5.445312 10.125 -5.84375 C 9.757812 -6.25 9.171875 -6.550781 8.359375 -6.75 L 5.71875 -7.40625 C 4.3125 -7.75 3.28125 -8.285156 2.625 -9.015625 C 1.976562 -9.753906 1.65625 -10.671875 1.65625 -11.765625 C 1.65625 -12.617188 1.875 -13.359375 2.3125 -13.984375 C 2.75 -14.609375 3.375 -15.09375 4.1875 -15.4375 C 5.007812 -15.78125 5.984375 -15.953125 7.109375 -15.953125 C 8.546875 -15.953125 9.675781 -15.75 10.5 -15.34375 C 11.332031 -14.945312 11.976562 -14.390625 12.4375 -13.671875 L 11.140625 -12.390625 L 10.859375 -12.390625 C 10.359375 -12.960938 9.8125 -13.375 9.21875 -13.625 C 8.625 -13.882812 7.921875 -14.015625 7.109375 -14.015625 C 6.078125 -14.015625 5.285156 -13.828125 4.734375 -13.453125 C 4.191406 -13.085938 3.921875 -12.554688 3.921875 -11.859375 C 3.921875 -11.222656 4.113281 -10.710938 4.5 -10.328125 C 4.882812 -9.941406 5.5625 -9.628906 6.53125 -9.390625 L 9.125 -8.765625 C 10.488281 -8.441406 11.472656 -7.90625 12.078125 -7.15625 C 12.679688 -6.414062 12.984375 -5.484375 12.984375 -4.359375 C 12.984375 -3.441406 12.765625 -2.628906 12.328125 -1.921875 C 11.890625 -1.222656 11.234375 -0.675781 10.359375 -0.28125 C 9.484375 0.101562 8.410156 0.296875 7.140625 0.296875 Z M 7.140625 0.296875 "/></g></g></g><g fill="#ffffff" fill-opacity="1"><g transform="translate(356.832132, 31.446707)"><g><path d="M 3.140625 6.640625 C 2.609375 6.640625 2.113281 6.59375 1.65625 6.5 C 1.195312 6.414062 0.800781 6.289062 0.46875 6.125 L 0.890625 4.296875 L 1.15625 4.21875 C 1.375 4.332031 1.65625 4.425781 2 4.5 C 2.34375 4.582031 2.691406 4.625 3.046875 4.625 C 3.679688 4.625 4.207031 4.535156 4.625 4.359375 C 5.039062 4.191406 5.394531 3.910156 5.6875 3.515625 C 5.988281 3.128906 6.269531 2.59375 6.53125 1.90625 L 7.078125 0.375 L 0.796875 -15.65625 L 3.296875 -15.65625 L 8.21875 -2.875 L 8.484375 -2.875 L 13.25 -15.65625 L 15.625 -15.65625 L 8.625 2.453125 C 8.226562 3.453125 7.785156 4.257812 7.296875 4.875 C 6.804688 5.488281 6.222656 5.9375 5.546875 6.21875 C 4.878906 6.5 4.078125 6.640625 3.140625 6.640625 Z M 3.140625 6.640625 "/></g></g></g><g fill="#ffffff" fill-opacity="1"><g transform="translate(373.33659, 31.446707)"><g><path d="M 7.140625 0.296875 C 6.148438 0.296875 5.238281 0.164062 4.40625 -0.09375 C 3.570312 -0.351562 2.863281 -0.707031 2.28125 -1.15625 C 1.707031 -1.613281 1.300781 -2.128906 1.0625 -2.703125 L 2.421875 -4.109375 L 2.71875 -4.109375 C 3.226562 -3.335938 3.84375 -2.753906 4.5625 -2.359375 C 5.28125 -1.972656 6.140625 -1.78125 7.140625 -1.78125 C 8.296875 -1.78125 9.171875 -2.003906 9.765625 -2.453125 C 10.367188 -2.898438 10.671875 -3.523438 10.671875 -4.328125 C 10.671875 -4.941406 10.488281 -5.445312 10.125 -5.84375 C 9.757812 -6.25 9.171875 -6.550781 8.359375 -6.75 L 5.71875 -7.40625 C 4.3125 -7.75 3.28125 -8.285156 2.625 -9.015625 C 1.976562 -9.753906 1.65625 -10.671875 1.65625 -11.765625 C 1.65625 -12.617188 1.875 -13.359375 2.3125 -13.984375 C 2.75 -14.609375 3.375 -15.09375 4.1875 -15.4375 C 5.007812 -15.78125 5.984375 -15.953125 7.109375 -15.953125 C 8.546875 -15.953125 9.675781 -15.75 10.5 -15.34375 C 11.332031 -14.945312 11.976562 -14.390625 12.4375 -13.671875 L 11.140625 -12.390625 L 10.859375 -12.390625 C 10.359375 -12.960938 9.8125 -13.375 9.21875 -13.625 C 8.625 -13.882812 7.921875 -14.015625 7.109375 -14.015625 C 6.078125 -14.015625 5.285156 -13.828125 4.734375 -13.453125 C 4.191406 -13.085938 3.921875 -12.554688 3.921875 -11.859375 C 3.921875 -11.222656 4.113281 -10.710938 4.5 -10.328125 C 4.882812 -9.941406 5.5625 -9.628906 6.53125 -9.390625 L 9.125 -8.765625 C 10.488281 -8.441406 11.472656 -7.90625 12.078125 -7.15625 C 12.679688 -6.414062 12.984375 -5.484375 12.984375 -4.359375 C 12.984375 -3.441406 12.765625 -2.628906 12.328125 -1.921875 C 11.890625 -1.222656 11.234375 -0.675781 10.359375 -0.28125 C 9.484375 0.101562 8.410156 0.296875 7.140625 0.296875 Z M 7.140625 0.296875 "/></g></g></g><g fill="#ffffff" fill-opacity="1"><g transform="translate(387.811703, 31.446707)"><g><path d="M 10.59375 -2.484375 L 11.328125 -0.828125 C 10.953125 -0.453125 10.460938 -0.171875 9.859375 0.015625 C 9.265625 0.203125 8.617188 0.296875 7.921875 0.296875 C 4.929688 0.296875 3.4375 -1.21875 3.4375 -4.25 L 3.4375 -13.765625 L 0.703125 -13.765625 L 0.703125 -15.671875 L 3.4375 -15.671875 L 3.4375 -18.96875 L 5.75 -19.359375 L 5.75 -15.671875 L 10.78125 -15.671875 L 10.78125 -13.765625 L 5.75 -13.765625 L 5.75 -4.46875 C 5.75 -2.675781 6.53125 -1.78125 8.09375 -1.78125 C 8.9375 -1.78125 9.664062 -2.015625 10.28125 -2.484375 Z M 10.59375 -2.484375 "/></g></g></g><g fill="#ffffff" fill-opacity="1"><g transform="translate(399.547872, 31.446707)"><g><path d="M 14.921875 -7.296875 L 4.15625 -7.296875 C 4.21875 -5.390625 4.671875 -3.992188 5.515625 -3.109375 C 6.367188 -2.222656 7.535156 -1.78125 9.015625 -1.78125 C 10.128906 -1.78125 11.023438 -1.976562 11.703125 -2.375 C 12.390625 -2.769531 12.925781 -3.394531 13.3125 -4.25 L 13.609375 -4.25 L 15.109375 -3.34375 C 14.660156 -2.207031 13.9375 -1.316406 12.9375 -0.671875 C 11.9375 -0.0234375 10.628906 0.296875 9.015625 0.296875 C 7.492188 0.296875 6.191406 0 5.109375 -0.59375 C 4.023438 -1.1875 3.1875 -2.085938 2.59375 -3.296875 C 2.007812 -4.515625 1.71875 -6.019531 1.71875 -7.8125 C 1.71875 -9.59375 2.023438 -11.09375 2.640625 -12.3125 C 3.265625 -13.53125 4.113281 -14.441406 5.1875 -15.046875 C 6.257812 -15.648438 7.488281 -15.953125 8.875 -15.953125 C 10.875 -15.953125 12.4375 -15.382812 13.5625 -14.25 C 14.6875 -13.125 15.253906 -11.445312 15.265625 -9.21875 C 15.265625 -8.351562 15.25 -7.769531 15.21875 -7.46875 Z M 12.984375 -9.21875 C 12.941406 -10.882812 12.570312 -12.09375 11.875 -12.84375 C 11.175781 -13.601562 10.175781 -13.984375 8.875 -13.984375 C 7.5 -13.984375 6.421875 -13.601562 5.640625 -12.84375 C 4.859375 -12.082031 4.382812 -10.875 4.21875 -9.21875 Z M 12.984375 -9.21875 "/></g></g></g><g fill="#ffffff" fill-opacity="1"><g transform="translate(416.236814, 31.446707)"><g><path d="M 2.71875 0 L 2.71875 -15.65625 L 4.921875 -15.65625 L 4.921875 -13.34375 L 5.21875 -13.28125 C 5.75 -14.164062 6.390625 -14.832031 7.140625 -15.28125 C 7.890625 -15.726562 8.789062 -15.953125 9.84375 -15.953125 C 11.0625 -15.953125 12 -15.722656 12.65625 -15.265625 C 13.320312 -14.804688 13.835938 -14.066406 14.203125 -13.046875 L 14.5 -13.046875 C 15.039062 -13.992188 15.707031 -14.710938 16.5 -15.203125 C 17.289062 -15.703125 18.257812 -15.953125 19.40625 -15.953125 C 21.019531 -15.953125 22.21875 -15.515625 23 -14.640625 C 23.789062 -13.773438 24.1875 -12.453125 24.1875 -10.671875 L 24.1875 0 L 21.875 0 L 21.875 -10.609375 C 21.875 -11.742188 21.632812 -12.582031 21.15625 -13.125 C 20.6875 -13.664062 19.921875 -13.9375 18.859375 -13.9375 C 17.609375 -13.9375 16.585938 -13.476562 15.796875 -12.5625 C 15.003906 -11.65625 14.609375 -10.164062 14.609375 -8.09375 L 14.609375 0 L 12.296875 0 L 12.296875 -10.609375 C 12.296875 -11.742188 12.054688 -12.582031 11.578125 -13.125 C 11.109375 -13.664062 10.34375 -13.9375 9.28125 -13.9375 C 8.03125 -13.9375 7.007812 -13.492188 6.21875 -12.609375 C 5.425781 -11.734375 5.03125 -10.304688 5.03125 -8.328125 L 5.03125 0 Z M 2.71875 0 "/></g></g></g></g></g></svg>